<svg xmlns="http://www.w3.org/2000/svg" viewBox="0 0 1775.45 792.1"><defs><style>.cls-1{fill:#1d1d1b;}.cls-2{fill:#63c3d6;}</style></defs><title>Ativo 1</title><g id="Camada_2" data-name="Camada 2"><g id="Camada_1-2" data-name="Camada 1"><path class="cls-1" d="M845.31,323a91.43,91.43,0,0,1-35.86-33.9q-13-21.6-13-48.56t13-48.55a91.29,91.29,0,0,1,35.86-33.9q22.89-12.3,51.43-12.31t51.31,12.31A92.5,92.5,0,0,1,983.91,192Q997,213.61,997,240.57t-13.09,48.56A92.65,92.65,0,0,1,948.05,323q-22.77,12.3-51.31,12.3T845.31,323Zm80.75-31.29a53.44,53.44,0,0,0,20.55-20.8q7.46-13.35,7.46-30.37t-7.46-30.36a53.46,53.46,0,0,0-20.55-20.81,61.33,61.33,0,0,0-58.63,0,53.46,53.46,0,0,0-20.55,20.81q-7.46,13.35-7.46,30.36t7.46,30.37a53.44,53.44,0,0,0,20.55,20.8,61.33,61.33,0,0,0,58.63,0Z"/><path class="cls-1" d="M1145.67,332.19l-35.33-51.05h-39v51.05h-42.4V149h79.31q24.35,0,42.27,8.11t27.63,23q9.67,14.91,9.68,35.33T1178,250.65q-9.83,14.79-27.88,22.64l41.09,58.9ZM1135,191.76q-10-8.25-29.06-8.25h-34.56v63.87h34.56q19.09,0,29.06-8.38t9.94-23.56Q1144.89,200,1135,191.76Z"/><path class="cls-1" d="M1221.32,149h83.24q29.84,0,52.74,11.38t35.6,32.07q12.69,20.67,12.7,48.16t-12.7,48.17q-12.7,20.67-35.6,32.06t-52.74,11.39h-83.24Zm81.14,148.41q27.48,0,43.85-15.31t16.36-41.49q0-26.17-16.36-41.49t-43.85-15.31h-38.74v113.6Z"/><path class="cls-1" d="M1579.39,298.16v34H1437.52V149H1576v34h-96.33v39.79h85.07v33h-85.07v42.41Z"/><path class="cls-1" d="M1729.9,332.19l-35.34-51.05h-39v51.05h-42.4V149h79.31q24.35,0,42.27,8.11t27.63,23q9.68,14.91,9.68,35.33t-9.82,35.21q-9.81,14.79-27.87,22.64l41.09,58.9Zm-10.73-140.43q-10-8.25-29.05-8.25h-34.56v63.87h34.56q19.1,0,29.05-8.38t9.95-23.56Q1729.12,200,1719.17,191.76Z"/><path class="cls-1" d="M929.59,471.18q17.92,8.11,27.62,23t9.69,35.33q0,20.15-9.69,35.21t-27.62,23q-17.93,8-42.27,8H850.41v50.52H808V463.06h79.31Q911.67,463.06,929.59,471.18ZM914,553q9.94-8.24,10-23.43,0-15.45-10-23.69t-29-8.24H850.41v63.6H885Q904.07,561.22,914,553Z"/><path class="cls-1" d="M1108.5,607h-85.07l-16.23,39.26H963.75l81.67-183.23h41.88l81.93,183.23h-44.5Zm-13.35-32.19-29.05-70.16L1037,574.84Z"/><path class="cls-1" d="M1188.34,463.06h83.23q29.85,0,52.75,11.39t35.6,32.07q12.69,20.68,12.69,48.16t-12.69,48.17q-12.7,20.67-35.6,32.06t-52.75,11.38h-83.23Zm81.13,148.41q27.49,0,43.86-15.31t16.36-41.48q0-26.17-16.36-41.49t-43.86-15.32h-38.73v113.6Z"/><rect class="cls-2" width="711.74" height="145.41" rx="40.18"/><rect class="cls-2" x="99.49" y="215.56" width="612.25" height="145.41" rx="40.18"/><rect class="cls-2" x="262.76" y="431.13" width="448.98" height="145.41" rx="40.18"/><rect class="cls-2" x="355.87" y="646.69" width="355.87" height="145.41" rx="40.18"/></g></g></svg>