<svg xmlns="http://www.w3.org/2000/svg" viewBox="0 0 474.46 263.31"><defs><style>.cls-1{fill:#fab03b;}.cls-2{fill:#020202;}</style></defs><title>Ativo 4</title><g id="Camada_2" data-name="Camada 2"><g id="Camada_1-2" data-name="Camada 1"><path class="cls-1" d="M0,82.75c.58-1.9.66-3.89,1.15-5.81a29.55,29.55,0,0,1,25.7-22.51c9.43-1.08,17.82,1.17,24.87,7.73a1.19,1.19,0,0,0,.2.08c.06-.05.14-.1.15-.15.09-1.64.09-1.64,1.7-1.64,1.44,0,2.88,0,4.31,0,.7,0,1,.14,1,.92q0,7.49,0,15c0,.77-.28.94-1,.92-1.63,0-3.28-.06-4.91,0-.75,0-1-.31-1.09-.93-1.88-9.62-10-13.56-16.8-14.66a22.91,22.91,0,0,0-15.75,2.63c-6.67,4-10.29,10-11.35,17.56-.79,5.66-.5,11.29,2,16.53,3.68,7.66,9.64,12.37,18.24,13.39,6.21.74,12-.3,17.15-4.11,3.81-2.84,6-6.87,7.89-11.1.47-1,.91-2.13,1.32-3.21.19-.5.41-.58.87-.3,1.78,1.08,3.56,2.14,5.36,3.18a.77.77,0,0,1,.35,1.1C57,109,49.49,117.08,36.64,118.85c-9,1.23-17.46-.2-24.84-5.88C5.27,107.94,1.71,101.18.45,93.1A11.11,11.11,0,0,0,0,90.18Z"/><path class="cls-1" d="M277.72,126.83c.42-.22.83-.45,1.25-.66Q321.39,105,363.8,83.74c1.72-.85,3.43-1.73,5.09-2.68a6.35,6.35,0,0,1,5.83-.35q17,6.56,34,13c13.18,5,26.33,10,39.59,14.78.22.08.46.14.68.24.79.38,1,.13,1-.72,0-4.52,0-9,0-13.54,0-1.1.35-1.34,1.36-1.35,7,0,14.07-.09,21.11,0,.2,0,.4,0,.6,0,1.1-.06,1.42.39,1.42,1.54q-.06,36.86,0,73.71c0,1.21-.35,1.43-1.47,1.4-7.31-.19-14.62-.31-21.93-.42-.84,0-1.08-.25-1.08-1.08,0-4.24-.05-8.47,0-12.71,0-1-.24-1.13-1.12-.79q-12.22,4.75-24.46,9.45L377,182.47a4.85,4.85,0,0,0-.78.3c-2.81,1.82-5.35,1.21-8.26-.23q-43.29-21.47-86.71-42.69a25.33,25.33,0,0,1-4-2.4h1.25q41.73,0,83.46,0a3.77,3.77,0,0,1,3.65,1.78,11.82,11.82,0,0,0,6.88,4.91c5,1.41,9.89-.72,13-5.6,4.57-7.27,1.36-16.55-6.56-18.9a11.32,11.32,0,0,0-12.64,4.6c-1.55,2.41-3.29,2.94-6,2.93-27-.1-54-.08-81.06-.09h-1.43Z"/><path class="cls-1" d="M264.28,157.05v1.54q0,32.85,0,65.69a2.86,2.86,0,0,0,1.4,2.71,7.76,7.76,0,0,1,2.93,9,8.18,8.18,0,0,1-7.89,5.69,8.17,8.17,0,0,1-1.9-16.1c.9-.23,1.09-.61,1.09-1.45q0-40.39,0-80.79c0-.86-.12-1.34-1.15-1.28s-2.07-.07-3.11-.06c-.58,0-.86-.14-.85-.8q.08-7.25.08-14.5c0-.7.27-.9.93-.87,1.07,0,2.16,0,3.23,0,.69,0,1-.23.89-.9,0-.24,0-.48,0-.72q0-42.19,0-84.39c0-1.29-.27-2-1.66-2.35a7.82,7.82,0,0,1-5.55-9.13,8.27,8.27,0,0,1,9.2-6.75,8.14,8.14,0,0,1,7.05,8,8,8,0,0,1-3.77,7.07,1.76,1.76,0,0,0-.9,1.63q0,34.39.05,68.8a2.42,2.42,0,0,0,.1.84c.81-3.18,1.55-6.38,2.43-9.55a124.06,124.06,0,0,1,21.8-43.23c3.94-5,8.56-9.38,13.06-13.85a111.46,111.46,0,0,1,31.05-21.95A128.54,128.54,0,0,1,369.57,8,66.56,66.56,0,0,1,378,7.2c1.06,0,1.54-.33,1.45-1.53-.12-1.58,0-3.19,0-4.79,0-.68.2-.88.88-.88Q387.64,0,395,0c.65,0,.81.23.81.84q0,7.3,0,14.62c0,.65-.24.81-.85.8-4.87-.05-9.75-.1-14.62-.12-.72,0-.87-.29-.85-.92,0-.92-.05-1.85,0-2.76s-.27-1-1-1a102.81,102.81,0,0,0-12.24,1.52,116.44,116.44,0,0,0-39.54,14.62c-30,18.21-49.45,44.15-57.27,78.52a110.26,110.26,0,0,0-2.48,18.36c-.05,1,.23,1.34,1.15,1.29a.24.24,0,0,1,.12,0c.94.12,2.21-.44,2.72.28s.16,1.84.16,2.8c0,4,0,8.07,0,12.1,0,.77-.22,1.11-1,1.07-.2,0-.4,0-.6,0-2.49.08-2.47.08-2.24,2.57a110.71,110.71,0,0,0,6,26.79,121.31,121.31,0,0,0,94.56,80c3.42.6,6.88.91,10.34,1.23,1,.1,1.47,0,1.36-1.22s0-2.39,0-3.59c0-.57.1-.88.78-.87q7.36.15,14.74.24c.66,0,.8.28.8.87q0,7.19,0,14.38c0,.66-.26.8-.85.8-4.87,0-9.75-.05-14.63,0-.73,0-.85-.29-.83-.92,0-1.4,0-2.8,0-4.19,0-.67-.21-1.08-1-1.14a125.53,125.53,0,0,1-51-15c-16.36-8.9-29.78-21-40.94-35.74-8-10.58-13.6-22.52-18-35A115.67,115.67,0,0,1,264.28,157.05ZM387.54,11.85v0c1,0,2,0,3,0,.59,0,.86-.12.85-.79,0-1.95,0-3.91,0-5.86,0-.62-.17-.84-.81-.83-2,0-4,0-6,0-.55,0-.79.15-.78.74,0,2,0,4,0,6,0,.56.15.78.74.76C385.55,11.83,386.54,11.85,387.54,11.85Zm0,247.1v0c1,0,2,0,3,0,.58,0,.88-.1.87-.78,0-2,0-4,0-6,0-.49-.11-.74-.66-.73-2.07,0-4.15,0-6.22,0-.53,0-.69.2-.69.71,0,2,0,4,0,6,0,.67.26.81.84.79C385.61,258.92,386.57,259,387.53,259ZM259.25,133.85h-.13c0,1,0,2,0,3,0,.62.16.84.8.83,2,0,4,0,6,0,.67,0,.8-.25.78-.84,0-1.92,0-3.84,0-5.75,0-.65-.15-.92-.86-.9-1.91,0-3.83,0-5.75,0-.61,0-.86.14-.83.79C259.28,131.93,259.25,132.89,259.25,133.85Zm5.33,99.78a3.57,3.57,0,0,0-3.57-3.94,3.83,3.83,0,0,0-4.07,3.55,4,4,0,0,0,3.86,4.07A3.72,3.72,0,0,0,264.58,233.63Zm0-203.73a3.82,3.82,0,0,0-7.63-.27,3.89,3.89,0,0,0,3.77,4A3.77,3.77,0,0,0,264.59,29.9Z"/><path class="cls-2" d="M11.5,188.25c0,1.64,0,3.06,0,4.47,0,.64-.19.81-.8.8-1.8,0-3.6-.05-5.4,0-.67,0-.77-.23-.77-.82q0-11,0-21.93c0-.59.1-.84.77-.83,1.8.05,3.6.05,5.4,0,.63,0,.81.18.8.81a22.23,22.23,0,0,0,.12,4.54c1.07,5.49,4.57,9,9.64,10.82,5.57,2,11,1.6,15.54-2.63,3-2.8,3.79-6.38,2.9-10.31a8,8,0,0,0-4.21-5.12,38.86,38.86,0,0,0-10.15-3.8,57.12,57.12,0,0,1-10.75-3.62c-4.54-2.17-8.06-5.29-9.32-10.41-2.08-8.4,1.69-16,10-19.24A23.37,23.37,0,0,1,38,133.58a14.71,14.71,0,0,1,6.58,11.69c.07,1.15.17,2.31.28,3.46.06.52-.11.69-.64.68-2,0-4.08,0-6.12,0-.69,0-.78-.27-.75-.84a15.07,15.07,0,0,0-.46-4.63,8.93,8.93,0,0,0-8-7c-3.34-.47-6.68-.78-10,.27-5.07,1.61-7.69,6-6.51,10.81a7.32,7.32,0,0,0,3.4,4.59,29.19,29.19,0,0,0,8.84,3.53,64.3,64.3,0,0,1,13.57,4.56c4.92,2.41,8.2,6.1,9.22,11.61,2.06,11.06-4.51,18-12.19,20.68-8.45,2.95-16.36,1.67-23.3-4.28Z"/><path class="cls-2" d="M168.62,154v-1.14c0-7.15,0-14.3,0-21.45,0-.94.23-1.22,1.18-1.18,1.79.08,3.6.06,5.39,0,.76,0,.94.22.93.95,0,3.31,0,6.63,0,9.94q0,22.11,0,44.22c0,1,.21,1.39,1.3,1.32,1.83-.1,3.67,0,5.51,0,.66,0,.91.15.89.86,0,1.71,0,3.43,0,5.15,0,.64-.12.89-.83.88-4.48,0-9,0-13.43,0-.79,0-.91-.27-.89-1,0-1.47,0-2.95,0-4.41-.19-.17-.3,0-.4.08-8.32,8.72-25.12,8.07-32.9-3.88-6.84-10.49-4.22-25.86,5.72-33.09,7.76-5.63,20.12-5.15,27,2.33a3.12,3.12,0,0,1,.34.59Zm-29.88,17.5a16.79,16.79,0,0,0,.87,5.25c1.94,5.38,5.44,9.22,11.2,10.38,5.38,1.08,10.18-.3,13.88-4.51,6-6.79,5.23-18.69-1.47-24.76a14.08,14.08,0,0,0-21.2,2.31A18.88,18.88,0,0,0,138.74,171.51Z"/><path class="cls-1" d="M235,98.33c-5.95,0-11.9,0-17.86,0-.83,0-1.12.16-1,1.06a16,16,0,0,0,16.72,13.56c3.26-.16,6.29-1.41,9.34-2.5a5.16,5.16,0,0,0,.77-.31c.64-.35,1-.22,1.17.53.4,1.5.86,3,1.34,4.47.19.57.12.87-.47,1.09-3.87,1.4-7.76,2.82-11.87,3.21a21.35,21.35,0,0,1-17.07-5.68c-5.85-5.36-8-12.11-7.45-19.87a22.78,22.78,0,0,1,7.24-15.81c4.92-4.57,10.85-6.16,17.45-5.71A20.25,20.25,0,0,1,247.46,79a24.48,24.48,0,0,1,5.8,12.79c.31,1.81.44,3.65.7,5.46.12.84-.13,1.1-1,1.09C247,98.31,241,98.33,235,98.33Zm-3.85-6.89h13.77c.51,0,1.06.15.79-.78a16.59,16.59,0,0,0-4.89-8.21c-8.22-7.09-21.75-2.6-24.18,8-.19.82.06,1,.86,1C222,91.43,226.57,91.44,231.12,91.44Z"/><path class="cls-1" d="M119,98.33c-5.92,0-11.83,0-17.75,0-1.1,0-1.18.29-1,1.26a16,16,0,0,0,17.09,13.36,34.15,34.15,0,0,0,9.52-2.74c.89-.35,1.16-.19,1.38.67.38,1.47.85,2.91,1.32,4.36.15.48.16.76-.43,1-4.24,1.54-8.51,3.19-13.05,3.36A21.68,21.68,0,0,1,98.38,112c-4.94-5.53-6.37-12.1-5.63-19.27A22.38,22.38,0,0,1,101.12,77c4.72-3.79,10.21-5,16.17-4.68,10,.58,17.75,7.44,19.88,18.71a55.65,55.65,0,0,1,.79,6.17c.06.91-.19,1.15-1.1,1.14C130.91,98.31,125,98.33,119,98.33Zm-3.87-6.89H128.8c.6,0,1.18.06.9-.86a16.45,16.45,0,0,0-5.8-8.87c-6.6-4.83-19.52-4-23.22,8.63-.3,1,0,1.12.9,1.12C106.1,91.42,110.61,91.44,115.13,91.44Z"/><path class="cls-1" d="M174.57,97.82c0,4.15,0,8.31,0,12.46,0,1,.31,1.29,1.28,1.24,1.64-.08,3.28,0,4.92,0,.61,0,.85.16.83.81,0,1.71,0,3.43,0,5.15,0,.59-.14.86-.79.86q-6.48,0-13,0c-.65,0-.82-.29-.8-.87s0-1.36,0-2c0-.38.19-.91-.15-1.12s-.7.25-1,.45a27.12,27.12,0,0,1-9.08,3.89c-7.66,1.59-14.74-2.08-17.2-8.94a13.71,13.71,0,0,1,8.31-17.56c6-2.33,12-1.71,17.88.53,1.27.49,1.26.51,1.26-.83,0-1.92,0-3.83,0-5.75.09-3.94-1-6.35-6.56-7.41-3.71-.69-7.21.19-10.69,1.34-2.72.9-2.73.89-3.81-1.78s-1.12-2.79,1.71-3.72c3.48-1.15,7-2.38,10.72-2.24a27,27,0,0,1,7.2,1.06c5.76,1.84,8.88,6,8.95,12,.05,4.16,0,8.31,0,12.47Zm-7.46,5.51c0-.76,0-1.52,0-2.27a1.28,1.28,0,0,0-.86-1.39A25.47,25.47,0,0,0,161,97.52c-3.55-.8-7.06-.9-10.38.85a7.83,7.83,0,0,0-4,8.8c.84,3.26,3.71,5.29,7.49,5.35s7-1.55,10.11-3.55C166.24,107.62,167.89,106.13,167.11,103.33Z"/><path class="cls-2" d="M114.65,189.08a27.65,27.65,0,0,1-11.48,4.8,17.76,17.76,0,0,1-8.07-.44c-4.65-1.47-7.48-5.6-7.5-11.08q-.07-12.83,0-25.65c0-1-.22-1.37-1.3-1.31-1.71.11-3.44,0-5.15,0-.71,0-1-.12-1-.9.06-1.68,0-3.36,0-5,0-.65.15-.9.86-.89,4.4,0,8.8,0,13.19,0,1,0,.82.59.82,1.16q0,15,0,30.08a24.84,24.84,0,0,0,.14,3A4.46,4.46,0,0,0,99.63,187a15,15,0,0,0,7.65-1.57,27.88,27.88,0,0,0,6.57-4.35,2.21,2.21,0,0,0,.82-1.84c0-9.83,0-19.66,0-29.49,0-.88.14-1.25,1.14-1.2a46.33,46.33,0,0,0,5.27,0c.95,0,1.09.29,1.09,1.14,0,11.87,0,23.73,0,35.6,0,1.14.33,1.39,1.38,1.34,1.72-.08,3.44,0,5.16,0,.63,0,.83.2.82.82,0,1.76,0,3.52,0,5.27,0,.67-.23.79-.83.79-4.4,0-8.79,0-13.19,0-.65,0-.81-.2-.78-.81C114.68,191.57,114.65,190.42,114.65,189.08Z"/><path class="cls-2" d="M209.34,171c.19-9.24,3.83-16.71,12.14-21.07,12.45-6.55,28.37-.48,32,15.15,1.88,8.07.54,15.7-5.1,22.1a22.1,22.1,0,0,1-37.3-6.57A25.22,25.22,0,0,1,209.34,171Zm37.26.09a19.52,19.52,0,0,0-.75-5.79,14.45,14.45,0,0,0-13.35-10.86A14.29,14.29,0,0,0,218.11,164a20,20,0,0,0-.52,12.48c3.45,12.5,16.85,13.74,23.52,7.86C245.11,180.86,246.58,176.29,246.6,171.12Z"/><path class="cls-1" d="M77.2,77.62a23.87,23.87,0,0,1,10-3.71,48.58,48.58,0,0,1,8.61-.32c.68,0,.89.23.87.9,0,1.52-.06,3,0,4.56,0,.83-.2,1.1-1.06,1.07a30.58,30.58,0,0,0-7.52.48c-4.46,1-8.11,3.11-10,7.53a11.09,11.09,0,0,0-.85,4.32c0,6,0,12.07-.06,18.1,0,.85.34,1,1.06,1,2.2,0,4.4,0,6.6,0,.8,0,1,.24,1,1,0,1.64,0,3.28,0,4.91,0,.69-.23.9-.9.9-4.76,0-9.51,0-14.27,0-1,0-.94-.55-.94-1.22q0-17.62,0-35.24c0-1.55,0-1.55-1.54-1.55-1.88,0-3.76,0-5.64,0-.66,0-.92-.18-.9-.88,0-1.75,0-3.51,0-5.27,0-.57.2-.76.77-.76q7,0,14,0c.58,0,.76.22.75.78C77.18,75.29,77.2,76.4,77.2,77.62Z"/><path class="cls-1" d="M192.63,77.65a24.71,24.71,0,0,1,12.31-4,56.28,56.28,0,0,1,6.23-.09c.73,0,1,.26.94,1-.05,1.52-.06,3,0,4.55,0,.8-.24,1-1,1a28,28,0,0,0-8.56.74c-4.43,1.26-7.86,3.67-9.31,8.28a14.6,14.6,0,0,0-.58,4.26c0,5.67,0,11.34,0,17,0,1,.31,1.13,1.17,1.11,2.16-.06,4.32,0,6.47,0,.76,0,1.07.16,1,1-.06,1.59-.05,3.19,0,4.79,0,.73-.14,1.06-1,1-4.72,0-9.43,0-14.15,0-1.09,0-1-.58-1-1.27,0-11.79,0-23.57,0-35.35,0-1.19-.33-1.47-1.46-1.42-1.88.1-3.76,0-5.64,0-.65,0-.93-.18-.91-.88,0-1.75,0-3.51,0-5.27,0-.56.2-.76.77-.76,4.63,0,9.27,0,13.91,0,.68,0,.78.32.76.88C192.61,75.35,192.63,76.43,192.63,77.65Z"/><path class="cls-2" d="M56.58,171.4c0-5,0-9.9,0-14.85,0-.87-.16-1.19-1.1-1.14-1.83.08-3.67,0-5.51,0-.64,0-.91-.11-.89-.83,0-1.72,0-3.44,0-5.15,0-.7.22-.87.88-.85,1.92,0,3.83,0,5.75,0,.7,0,.88-.22.87-.89,0-2.55,0-5.11,0-7.67,0-.71.16-1,.92-1,1.84,0,3.68,0,5.51-.06.82,0,1.09.15,1.07,1-.07,2.51,0,5,0,7.55,0,.77.18,1,1,1,2.31-.06,4.63,0,6.95,0,.75,0,1,.21.93,1-.06,1.67,0,3.35,0,5,0,.7-.22.88-.89.86-2.31,0-4.63,0-7,0-.72,0-1,.09-1,.94,0,9.39,0,18.77,0,28.16,0,2,.38,3.39,3.3,2.78,1.6-.34,3.23-.51,4.84-.79.55-.1.7.05.69.59,0,1.84,0,3.68,0,5.51,0,.58-.23.77-.74.85-2.09.32-4.17.84-6.27,1-5.25.29-8.89-2.38-9.28-8.28,0-.16,0-.32,0-.48V171.4Z"/><path class="cls-2" d="M192.3,174.45c0-6,0-11.91,0-17.86,0-1-.25-1.22-1.19-1.18-1.76.07-3.52,0-5.28,0-.67,0-1-.07-1-.88.07-1.71,0-3.43,0-5.15,0-.62.16-.81.8-.8,4.39,0,8.79,0,13.19,0,1.06,0,.89.57.89,1.2,0,11.78,0,23.57,0,35.35,0,1.27.33,1.61,1.55,1.52,1.55-.11,3.12,0,4.68,0,.74,0,1.06.13,1,1-.08,1.68-.05,3.36,0,5,0,.64-.13.89-.84.88-4.32,0-8.64,0-13,0-.86,0-.85-.37-.84-1q0-9,0-18.09Z"/><path class="cls-2" d="M194.8,139.34a5.05,5.05,0,0,1-5-5,5.21,5.21,0,0,1,5-5.05,5,5,0,0,1,0,10.05Z"/><path class="cls-2" d="M387.54,11.85c-1,0-2,0-3,0-.59,0-.75-.2-.74-.76,0-2,0-4,0-6,0-.59.23-.74.78-.74,2,0,4,0,6,0,.64,0,.82.21.81.83,0,2,0,3.91,0,5.86,0,.67-.26.81-.85.79-1,0-2,0-3,0Z"/><path class="cls-2" d="M387.53,259c-1,0-1.92,0-2.88,0-.58,0-.86-.12-.84-.79,0-2,0-4,0-6,0-.51.16-.71.69-.71,2.07,0,4.15,0,6.22,0,.55,0,.67.24.66.73,0,2,0,4,0,6,0,.68-.29.8-.87.78-1,0-2,0-3,0Z"/><path class="cls-2" d="M259.25,133.85c0-1,0-1.92,0-2.87,0-.65.22-.8.83-.79,1.92,0,3.84,0,5.75,0,.71,0,.87.25.86.9,0,1.91,0,3.83,0,5.75,0,.59-.11.86-.78.84-2,0-4,0-6,0-.64,0-.83-.21-.8-.83.05-1,0-2,0-3Z"/><path class="cls-2" d="M264.58,233.63a3.72,3.72,0,0,1-3.78,3.68,4,4,0,0,1-3.86-4.07,3.83,3.83,0,0,1,4.07-3.55A3.57,3.57,0,0,1,264.58,233.63Z"/><path class="cls-2" d="M264.59,29.9a3.77,3.77,0,0,1-3.86,3.72,3.89,3.89,0,0,1-3.77-4,3.82,3.82,0,0,1,7.63.27Z"/></g></g></svg>